<?xml version="1.0" encoding="UTF-8" standalone="no"?>
<svg
   version="1.1"
   width="3.4806874in"
   height="1.8042437in"
   id="svg634"
   xmlns:xlink="http://www.w3.org/1999/xlink"
   xmlns="http://www.w3.org/2000/svg"
   xmlns:svg="http://www.w3.org/2000/svg">
  <defs
     id="defs638" />
  <g
     id="layer1"
     style="display:inline"
     transform="matrix(0.92923241,0,0,0.86440677,22.974712,9.128084)">
    <g
       id="g585"
       transform="matrix(1.21777,0,0,1.21777,-33.770118,-19.518434)">
      <g
         id="g456"
         transform="matrix(0.41349792,0,0,0.41349792,80.62043,68.914617)">
        <path
           id="path2817"
           style="display:inline;fill:#ff00ff;stroke:none;stroke-width:0;stroke-dasharray:none"
           d="m -177.00773,-148.87171 c 7.47094,79.192924 29.89229,129.427269 126.114292,165.2691 l -46.823729,6.916038 c 44.440579,68.338003 60.893201,65.221033 117.998622,64.999759 L -14.057746,105.60108 C 32.36079,137.68426 56.778986,138.61253 88.333663,124.27217 49.042257,82.780075 25.294119,8.3215157 26.524758,-65.35724 c 62.340979,-4.817763 115.440832,18.501813 153.530262,44.226834 49.72291,-34.265871 77.23543,-51.635752 153.52822,-44.226834 1.23062,73.6787557 -22.51751,148.137315 -61.80892,189.62941 31.55468,14.34036 55.97288,13.41209 102.3914,-18.67109 L 339.82653,88.313187 c 57.10542,0.221274 73.55805,3.338244 117.99862,-64.999759 L 411.00142,16.39739 c 96.22201,-35.841831 118.64335,-86.076176 126.1143,-165.2691 l -357.0607,89.241126 z" />
        <path
           id="path1583"
           style="display:inline;fill:#000000;stroke:none;stroke-width:0;stroke-dasharray:none"
           d="m -168.25671,-142.32751 c 7.28784,75.517529 29.15967,123.420467 123.023427,157.598844 l -45.676154,6.595067 C -47.55803,87.032783 -31.508633,84.060479 24.197224,83.849467 L -9.3003791,100.33502 C 35.980519,130.9292 59.800264,131.81439 90.581583,118.13957 52.253143,78.573155 29.087034,7.5702722 30.28752,-62.689002 c 60.813094,-4.594167 112.61156,17.643131 149.76748,42.174232 48.50428,-32.675564 75.34251,-49.239297 149.76547,-42.174232 1.20048,70.2592742 -21.96563,141.262157 -60.29407,180.828572 30.78132,13.67482 54.60107,12.78963 99.88195,-17.80455 L 335.91076,83.849467 c 55.70586,0.211012 71.75526,3.183316 115.10667,-61.983066 L 405.34127,15.271334 C 499.20503,-18.907043 521.07686,-66.809981 528.3647,-142.32751 L 180.055,-57.228124 Z" />
        <path
           id="path1581"
           style="display:inline;fill:#000000;stroke:none;stroke-width:0;stroke-dasharray:none"
           d="m 46.562554,-58.206882 c -2.721848,0.04264 -5.310942,0.148043 -7.747426,0.308751 C 50.96352,30.93403 51.64321,88.122571 180.055,159.93211 300.91281,92.494599 320.2827,21.33687 321.29487,-57.898131 282.47055,-60.458933 204.52988,-48.800722 180.055,2.0245148 157.11614,-45.611191 87.212157,-58.843725 46.562554,-58.206882 Z m 5.041979,9.191077 C 113.41281,-33.390769 161.47569,-8.2109676 180.055,50.217661 196.87315,-7.2493486 248.37347,-40.011842 308.50547,-49.015805 307.03754,29.240267 287.93468,82.630168 180.055,138.47714 72.173896,82.629867 53.072465,29.240649 51.604533,-49.015805 Z" />
        <path
           style="display:inline;fill:#000000;stroke:none;stroke-width:0;stroke-dasharray:none"
           d="M 236.41437,7.3790196 205.38376,43.075039 C 234.1188,66.091982 260.78011,20.871985 236.41437,7.3790196 Z"
           id="path1579" />
        <path
           style="display:inline;fill:#000000;stroke:none;stroke-width:0;stroke-dasharray:none"
           d="M 123.69421,7.3790196 154.72483,43.075039 C 125.9898,66.091982 99.32848,20.871985 123.69421,7.3790196 Z"
           id="path1679" />
        <path
           id="path2792"
           style="display:inline;fill:#f9f9f9;stroke:none;stroke-width:0;stroke-dasharray:none"
           d="m -147.82051,-131.30166 c 6.86024,69.325117 27.44881,113.300035 115.805351,144.675786 l -42.996227,6.054279 c 40.807884,59.822764 55.915621,57.094187 108.353093,56.90047 L 1.8094891,91.462619 C 44.433636,119.54809 66.85583,120.36069 95.831131,107.80722 59.751525,71.485218 37.944624,6.3045601 39.074664,-58.193483 c 57.245053,-4.217446 106.004386,16.1964 140.980266,38.715967 45.65843,-29.996186 70.92201,-45.201698 140.9784,-38.715967 1.13003,64.4980431 -20.67686,129.678701 -56.75648,166.000703 28.9753,12.55347 51.3975,11.74087 94.02164,-16.344601 l -31.5322,-15.133744 c 52.43745,0.193717 67.5452,2.922294 108.35307,-56.90047 L 392.12313,13.374126 C 480.47969,-18.001625 501.06825,-61.976543 507.9285,-131.30166 l -327.87357,78.121265 z" />
      </g>
      <text
         xml:space="preserve"
         style="font-size:29.7541px;font-family:Pacifico;-inkscape-font-specification:Pacifico;fill:#000000;stroke-width:0"
         id="text1902"
         transform="matrix(0.93638729,-0.3772891,0.32648399,0.93638729,34.241081,44.296682)"><textPath
           xlink:href="#path569"
           id="textPath571"><tspan
             id="tspan1900"
             style="font-style:normal;font-variant:normal;font-weight:normal;font-stretch:normal;font-size:29.7541px;font-family:'Gloria Hallelujah';-inkscape-font-specification:'Gloria Hallelujah';stroke-width:0">KamiYomu</tspan></textPath></text>
      <path
         style="fill:none;stroke-width:0"
         d="m 13.716351,120.28188 c 0,0 73.307702,91.93959 191.628889,30.41611 118.32119,-61.523494 87.4548,-78.114097 87.4548,-78.114097"
         id="path569" />
    </g>
  </g>
</svg>
