<?xml version="1.0" encoding="UTF-8" standalone="no"?>
<svg
   version="1.1"
   width="64"
   height="64"
   id="svg634"
   sodipodi:docname="favicon.svg"
   inkscape:version="1.2.2 (732a01da63, 2022-12-09)"
   inkscape:export-filename="favicon.png"
   inkscape:export-xdpi="30.719999"
   inkscape:export-ydpi="30.719999"
   xmlns:inkscape="http://www.inkscape.org/namespaces/inkscape"
   xmlns:sodipodi="http://sodipodi.sourceforge.net/DTD/sodipodi-0.dtd"
   xmlns="http://www.w3.org/2000/svg"
   xmlns:svg="http://www.w3.org/2000/svg"
   xmlns:rdf="http://www.w3.org/1999/02/22-rdf-syntax-ns#"
   xmlns:cc="http://creativecommons.org/ns#">
  <sodipodi:namedview
     id="namedview8"
     pagecolor="#ffffff"
     bordercolor="#000000"
     borderopacity="0.25"
     inkscape:showpageshadow="2"
     inkscape:pageopacity="0.0"
     inkscape:pagecheckerboard="0"
     inkscape:deskcolor="#d1d1d1"
     showgrid="false"
     inkscape:zoom="8.5363647"
     inkscape:cx="53.008513"
     inkscape:cy="41.059633"
     inkscape:window-width="1920"
     inkscape:window-height="1111"
     inkscape:window-x="-9"
     inkscape:window-y="-9"
     inkscape:window-maximized="1"
     inkscape:current-layer="g238" />
  <defs
     id="defs638" />
  <g
     inkscape:groupmode="layer"
     id="g238"
     inkscape:label="Dark"
     style="display:inline">
    <g
       id="g2611"
       transform="translate(70.115472,-100.89724)"
       class="UnoptimicedTransforms"
       style="fill:#1a1a1a" />
    <g
       id="g2619"
       transform="matrix(-0.22735866,0,0,0.21847897,92.848909,-29.368705)"
       class="UnoptimicedTransforms"
       style="fill:#1a1a1a"
       inkscape:export-filename="..\KamiYomu.Web\wwwroot\images\favicon.png"
       inkscape:export-xdpi="96"
       inkscape:export-ydpi="96">
      <path
         id="path2617"
         style="fill:#1a1a1a;stroke-width:1.56771"
         d="m 329.83111,236.82093 -30.06306,33.19409 c 27.83906,21.40368 53.66906,-20.64685 30.06306,-33.19409 z m -61.36184,48.75956 c 28.09979,-88.62493 48.6199,-95.43867 123.90891,-96.1769 -1.423,72.81432 -18.04871,122.68631 -122.72882,174.65254 l 0.59004,18.88135 C 367.12146,344.48586 407.7822,269.55028 404.76906,181.143 367.00074,178.7519 340.71835,169.68174 270.2394,216.54554 Z m -63.03237,-48.75956 30.06306,33.19409 C 207.6609,291.4187 181.8309,249.36817 205.4369,236.82093 Z m 61.36184,48.75956 c -28.09979,-88.62493 -48.6199,-95.43867 -123.90891,-96.1769 1.423,72.81432 18.04871,122.68631 122.72882,174.65254 l -0.59004,18.88135 C 168.14655,344.48586 127.48581,269.55028 130.49895,181.143 c 37.76832,-2.3911 64.05071,-11.46126 134.52966,35.40254 z"
         sodipodi:nodetypes="cccccccccccccccccccc" />
    </g>
  </g>
  <g
     inkscape:groupmode="layer"
     id="g465"
     inkscape:label="Light"
     style="display:none;fill:#ffffff">
    <g
       id="g459"
       transform="translate(70.115472,-100.89724)"
       class="UnoptimicedTransforms"
       style="fill:#ffffff" />
    <g
       id="g463"
       transform="matrix(-0.72054896,0,0,0.69240732,292.8434,-119.49076)"
       class="UnoptimicedTransforms"
       style="fill:#ffffff">
      <path
         id="path461"
         style="fill:#ffffff;stroke-width:1.56771"
         d="m 329.83111,236.82093 -30.06306,33.19409 c 27.83906,21.40368 53.66906,-20.64685 30.06306,-33.19409 z m -61.36184,48.75956 c 28.09979,-88.62493 48.6199,-95.43867 123.90891,-96.1769 -1.423,72.81432 -18.04871,122.68631 -122.72882,174.65254 l 0.59004,18.88135 C 367.12146,344.48586 407.7822,269.55028 404.76906,181.143 367.00074,178.7519 340.71835,169.68174 270.2394,216.54554 Z m -63.03237,-48.75956 30.06306,33.19409 C 207.6609,291.4187 181.8309,249.36817 205.4369,236.82093 Z m 61.36184,48.75956 c -28.09979,-88.62493 -48.6199,-95.43867 -123.90891,-96.1769 1.423,72.81432 18.04871,122.68631 122.72882,174.65254 l -0.59004,18.88135 C 168.14655,344.48586 127.48581,269.55028 130.49895,181.143 c 37.76832,-2.3911 64.05071,-11.46126 134.52966,35.40254 z"
         sodipodi:nodetypes="cccccccccccccccccccc" />
    </g>
  </g>
  <metadata
     id="metadata870">
    <rdf:RDF>
      <cc:License
         rdf:about="http://creativecommons.org/publicdomain/zero/1.0/">
        <cc:permits
           rdf:resource="http://creativecommons.org/ns#Reproduction" />
        <cc:permits
           rdf:resource="http://creativecommons.org/ns#Distribution" />
        <cc:permits
           rdf:resource="http://creativecommons.org/ns#DerivativeWorks" />
      </cc:License>
      <cc:Work
         rdf:about="">
        <cc:license
           rdf:resource="http://creativecommons.org/publicdomain/zero/1.0/" />
      </cc:Work>
    </rdf:RDF>
  </metadata>
</svg>
