<?xml version="1.0" encoding="UTF-8" standalone="no"?>
<svg
   version="1.1"
   width="675.49896"
   height="282.04025"
   id="svg634"
   sodipodi:docname="logo-watermark.svg"
   inkscape:version="1.2.2 (732a01da63, 2022-12-09)"
   xmlns:inkscape="http://www.inkscape.org/namespaces/inkscape"
   xmlns:sodipodi="http://sodipodi.sourceforge.net/DTD/sodipodi-0.dtd"
   xmlns="http://www.w3.org/2000/svg"
   xmlns:svg="http://www.w3.org/2000/svg">
  <sodipodi:namedview
     id="namedview8"
     pagecolor="#ffffff"
     bordercolor="#000000"
     borderopacity="0.25"
     inkscape:showpageshadow="2"
     inkscape:pageopacity="0.0"
     inkscape:pagecheckerboard="0"
     inkscape:deskcolor="#d1d1d1"
     showgrid="false"
     inkscape:zoom="1.67352"
     inkscape:cx="297.87514"
     inkscape:cy="191.5125"
     inkscape:window-width="3200"
     inkscape:window-height="1711"
     inkscape:window-x="2391"
     inkscape:window-y="-9"
     inkscape:window-maximized="1"
     inkscape:current-layer="layer1"
     showguides="false" />
  <defs
     id="defs638" />
  <g
     inkscape:groupmode="layer"
     id="g238"
     inkscape:label="Dark"
     style="display:inline">
    <g
       id="g2632"
       transform="translate(-6.4904599,-149.87076)"
       style="fill:#1a1a1a">
      <g
         id="g2611"
         transform="translate(76.605932,48.973517)"
         class="UnoptimicedTransforms"
         style="fill:#1a1a1a" />
      <g
         id="g2619"
         transform="matrix(-1,0,0,1,611.87394,48.973517)"
         class="UnoptimicedTransforms"
         style="fill:#1a1a1a">
        <path
           id="path2617"
           style="fill:#1a1a1a;stroke-width:1.56771"
           d="m 329.83111,236.82093 -30.06306,33.19409 c 27.83906,21.40368 53.66906,-20.64685 30.06306,-33.19409 z m -61.36184,48.75956 c 28.09979,-88.62493 48.6199,-95.43867 123.90891,-96.1769 -1.423,72.81432 -18.04871,122.68631 -122.72882,174.65254 l 0.59004,18.88135 C 367.12146,344.48586 407.7822,269.55028 404.76906,181.143 367.00074,178.7519 340.71835,169.68174 270.2394,216.54554 Z m 1e-5,-105.58159 336.9142,-79.10166 c -7.06061,70.22457 -28.25143,114.76982 -119.18856,146.55268 l 44.25318,6.13192 c -41.99973,60.59893 -57.54904,57.8362 -111.51801,57.63997 l 32.45233,15.32978 c -43.86905,28.44987 -66.94538,29.27252 -96.76695,16.55616 37.13337,-36.79324 59.57724,-102.81841 58.41419,-168.15328 -72.43115,-6.59983 -96.56745,2.33444 -143.97033,32.99659 z m -63.03238,56.82203 30.06306,33.19409 C 207.6609,291.4187 181.8309,249.36817 205.4369,236.82093 Z m 61.36184,48.75956 c -28.09979,-88.62493 -48.6199,-95.43867 -123.90891,-96.1769 1.423,72.81432 18.04871,122.68631 122.72882,174.65254 l -0.59004,18.88135 C 168.14655,344.48586 127.48581,269.55028 130.49895,181.143 c 37.76832,-2.3911 64.05071,-11.46126 134.52966,35.40254 z m -1e-5,-105.58159 -336.914202,-79.10166 c 7.06061,70.22457 28.25143,114.76982 119.18856,146.55268 l -44.25318,6.13192 c 41.99973,60.59893 57.54904,57.8362 111.518012,57.63997 l -32.452332,15.32978 c 43.869052,28.44987 66.945382,29.27252 96.766952,16.55616 -37.13337,-36.79324 -59.57724,-102.81841 -58.41419,-168.15328 72.43115,-6.59983 96.56745,2.33444 143.97033,32.99659 z" />
      </g>
    </g>
  </g>
  <g
     inkscape:groupmode="layer"
     id="layer1"
     inkscape:label="Light"
     style="display:inline"
     transform="matrix(0.92923241,0,0,0.86440677,23.901716,19.121373)">
    <g
       id="g313"
       transform="matrix(0.9638254,0,0,0.97058823,5.9622801,-141.31514)"
       style="display:inline;fill:#ffffff">
      <g
         id="g307"
         transform="translate(76.605932,48.973517)"
         class="UnoptimicedTransforms"
         style="fill:#ffffff" />
      <g
         id="g311"
         transform="matrix(-1,0,0,1,611.87394,48.973517)"
         class="UnoptimicedTransforms"
         style="fill:#ffffff">
        <path
           id="path309"
           style="fill:#ffffff;stroke-width:1.56771"
           d="m 299.76805,270.01502 c 229.98624,-130.78817 114.99312,-65.39408 0,0 z m -31.29878,15.56547 c 28.09979,-88.62493 48.6199,-95.43867 123.90891,-96.1769 -1.423,72.81432 -18.04871,122.68631 -122.72882,174.65254 l 0.59004,18.88135 C 367.12146,344.48586 407.7822,269.55028 404.76906,181.143 367.00074,178.7519 340.71835,169.68174 270.2394,216.54554 Z m 1e-5,-105.58159 336.9142,-79.10166 c -7.06061,70.22457 -28.25143,114.76982 -119.18856,146.55268 l 44.25318,6.13192 c -41.99973,60.59893 -57.54904,57.8362 -111.51801,57.63997 l 32.45233,15.32978 c -43.86905,28.44987 -66.94538,29.27252 -96.76695,16.55616 37.13337,-36.79324 59.57724,-102.81841 58.41419,-168.15328 -72.43115,-6.59983 -96.56745,2.33444 -143.97033,32.99659 z m -32.96932,90.01612 c 272.83163,-130.78817 136.41581,-65.39408 0,0 z m 31.29878,15.56547 c -28.09979,-88.62493 -48.6199,-95.43867 -123.90891,-96.1769 1.423,72.81432 18.04871,122.68631 122.72882,174.65254 l -0.59004,18.88135 C 168.14655,344.48586 127.48581,269.55028 130.49895,181.143 c 37.76832,-2.3911 64.05071,-11.46126 134.52966,35.40254 z m -1e-5,-105.58159 -336.914202,-79.10166 c 7.06061,70.22457 28.25143,114.76982 119.18856,146.55268 l -44.25318,6.13192 c 41.99973,60.59893 57.54904,57.8362 111.518012,57.63997 l -32.452332,15.32978 c 43.869052,28.44987 66.945382,29.27252 96.766952,16.55616 -37.13337,-36.79324 -59.57724,-102.81841 -58.41419,-168.15328 72.43115,-6.59983 96.56745,2.33444 143.97033,32.99659 z"
           sodipodi:nodetypes="cccccccccccccccccccccccccccccccccccccc" />
      </g>
    </g>
  </g>
</svg>
