<?xml version="1.0" encoding="UTF-8" standalone="no"?>
<svg
   version="1.1"
   width="675.49896"
   height="282.04025"
   id="svg634"
   sodipodi:docname="logo.svg"
   inkscape:version="1.2.2 (732a01da63, 2022-12-09)"
   inkscape:export-filename="..\src\KamiYomu.Web\wwwroot\images\logo.svg"
   inkscape:export-xdpi="96"
   inkscape:export-ydpi="96"
   xmlns:inkscape="http://www.inkscape.org/namespaces/inkscape"
   xmlns:sodipodi="http://sodipodi.sourceforge.net/DTD/sodipodi-0.dtd"
   xmlns="http://www.w3.org/2000/svg"
   xmlns:svg="http://www.w3.org/2000/svg">
  <sodipodi:namedview
     id="namedview8"
     pagecolor="#ffffff"
     bordercolor="#000000"
     borderopacity="0.25"
     inkscape:showpageshadow="2"
     inkscape:pageopacity="0.0"
     inkscape:pagecheckerboard="0"
     inkscape:deskcolor="#d1d1d1"
     showgrid="false"
     inkscape:zoom="0.99999999"
     inkscape:cx="270.5"
     inkscape:cy="327.5"
     inkscape:window-width="3200"
     inkscape:window-height="1711"
     inkscape:window-x="2391"
     inkscape:window-y="-9"
     inkscape:window-maximized="1"
     inkscape:current-layer="g238"
     showguides="false" />
  <defs
     id="defs638">
    <inkscape:perspective
       sodipodi:type="inkscape:persp3d"
       inkscape:vp_x="0 : 141.02013 : 1"
       inkscape:vp_y="0 : 1000 : 0"
       inkscape:vp_z="675.49896 : 141.02013 : 1"
       inkscape:persp3d-origin="337.74948 : 94.013418 : 1"
       id="perspective1565" />
  </defs>
  <g
     inkscape:groupmode="layer"
     id="g238"
     inkscape:label="Dark"
     style="display:inline">
    <path
       id="path2817"
       style="fill:#ff00ff;stroke:none;stroke-width:0;stroke-dasharray:none"
       d="M 5.9561387,7.5540767 C 12.898381,76.008974 33.733023,119.43188 123.14563,150.4138 l -43.510128,5.97827 c 41.295628,59.07183 56.583938,56.3775 109.648148,56.18623 l -31.9091,14.94377 c 43.13361,27.73292 65.82379,28.53532 95.14542,16.13942 -36.51085,-35.86605 -58.57839,-100.22853 -57.43484,-163.916943 57.92926,-4.164507 107.27137,15.993092 142.6653,38.229973 46.20414,-29.619649 71.76967,-44.634292 142.6634,-38.229973 1.14354,63.688413 -20.924,128.050893 -57.43485,163.916943 29.32163,12.3959 52.01182,11.5935 95.14541,-16.13942 L 486.2153,212.5783 c 53.06421,0.19127 68.35253,2.8856 109.64815,-56.18623 L 552.35332,150.4138 C 641.76593,119.43188 662.60057,76.008974 669.54282,7.5540767 L 337.75043,84.694707 Z"
       sodipodi:nodetypes="ccccccccccccccccc" />
    <path
       id="path1583"
       style="fill:#000000;stroke:none;stroke-width:0;stroke-dasharray:none"
       d="M 14.087867,13.210931 C 20.859966,78.488788 41.183984,119.89641 128.40523,149.44043 l -42.443764,5.70082 c 40.283534,56.33026 55.197154,53.76098 106.960844,53.57858 l -31.12706,14.25022 c 42.07648,26.44582 64.21056,27.21098 92.81356,15.39038 -35.61603,-34.20148 -57.14273,-95.57685 -56.0272,-156.30944 56.5095,-3.971229 104.64232,15.250841 139.1688,36.45569 45.07175,-28.244977 70.01071,-42.56278 139.16694,-36.45569 1.11552,60.73259 -20.41118,122.10796 -56.02721,156.30944 28.603,11.8206 50.73709,11.05544 92.81355,-15.39038 l -31.12705,-14.25022 c 51.76369,0.1824 66.67732,2.75168 106.96085,-53.57858 l -42.44377,-5.70082 C 634.31497,119.89641 654.63899,78.488788 661.41109,13.210931 L 337.75041,86.77141 Z"
       sodipodi:nodetypes="ccccccccccccccccc"
       inkscape:export-filename="..\src\KamiYomu.Web\wwwroot\images\logo.svg"
       inkscape:export-xdpi="96"
       inkscape:export-ydpi="96" />
    <path
       id="path1581"
       style="fill:#000000;stroke:none;stroke-width:0;stroke-dasharray:none"
       d="m 213.7049,85.925365 c -2.52923,0.03686 -4.9351,0.127969 -7.19916,0.266886 C 217.79442,162.97937 218.42601,212.41353 337.75041,274.48618 450.05541,216.19274 468.05454,154.68352 468.99508,86.192251 432.91826,83.978677 360.49326,94.056113 337.75041,137.98979 316.43488,96.813165 251.47783,85.374873 213.7049,85.925365 Z m 4.68517,7.944829 C 275.82433,107.37658 320.48591,129.14217 337.75041,179.64827 353.37838,129.9734 401.23415,101.65328 457.11076,93.870194 455.74671,161.51527 437.99571,207.66586 337.75041,255.94036 237.50379,207.6656 219.75412,161.5156 218.39007,93.870194 Z"
       sodipodi:nodetypes="sccccsccccc" />
    <path
       style="fill:#000000;stroke:none;stroke-width:0;stroke-dasharray:none"
       d="m 390.12137,142.61826 -28.83465,30.85588 c 26.70153,19.896 51.47608,-19.19247 28.83465,-30.85588 z"
       id="path1579" />
    <path
       style="fill:#000000;stroke:none;stroke-width:0;stroke-dasharray:none"
       d="m 285.37814,142.61826 28.83466,30.85588 c -26.70153,19.896 -51.47609,-19.19247 -28.83466,-30.85588 z"
       id="path1679" />
    <path
       id="path2792"
       style="fill:#f9f9f9;stroke:none;stroke-width:0;stroke-dasharray:none"
       d="m 33.077848,22.74175 c 6.374764,59.925094 25.506324,97.93731 107.610092,125.05872 l -39.95349,5.23336 c 37.92001,51.7112 51.95861,49.3526 100.68521,49.18515 l -29.30076,13.08171 c 39.60774,24.27727 60.44317,24.97969 87.36796,14.12838 -33.52634,-31.39698 -53.79002,-87.73958 -52.73995,-143.492123 53.19396,-3.645589 98.50271,14.000277 131.00344,33.466343 42.42729,-25.928906 65.90303,-39.072653 131.0017,-33.466343 1.05006,55.752543 -19.21361,112.095143 -52.73996,143.492123 26.92479,10.85131 47.76022,10.14889 87.36796,-14.12838 L 474.0793,202.21898 c 48.72658,0.16745 62.76519,2.52605 100.68519,-49.18515 L 534.811,147.80047 C 616.91478,120.67906 636.04634,82.666844 642.42111,22.74175 L 337.75035,90.270294 Z"
       sodipodi:nodetypes="ccccccccccccccccc" />
  </g>
  <g
     inkscape:groupmode="layer"
     id="layer1"
     inkscape:label="Light"
     style="display:inline"
     transform="matrix(0.92923241,0,0,0.86440677,23.901716,19.121373)" />
</svg>
